<?xml version="1.0" encoding="UTF-8" standalone="no"?>
<svg width="28" height="28" xmlns="http://www.w3.org/2000/svg">
    <g transform="translate(-477.17241,-466.67808)">
        <g transform="matrix(0.125,0,0,-0.125,477.17241,603.76058)">
            <g transform="matrix(0.2042547,0,0,0.2042547,0,872.66204)">
                <circle cx="548.33502" cy="-548.32996" r="527.85242" style="fill:#ffffff;stroke:none;stroke-width:243.976;stop-color:#000000" transform="scale(1,-1)" />
                <path d="M 189.141,907.52 C 97.168,815.555 40.3711,688.68 40.3711,548.328 v 0 c 0,-140.34 56.7969,-267.195 148.7699,-359.187 v 0 C 281.121,97.1875 407.988,40.3711 548.328,40.3711 v 0 c 140.363,0 267.199,56.8164 359.211,148.7699 v 0 c 91.941,91.992 148.771,218.847 148.771,359.187 v 0 c 0,140.352 -56.83,267.227 -148.771,359.192 v 0 c -92.012,91.953 -218.848,148.77 -359.211,148.77 v 0 c -140.34,0 -267.207,-56.817 -359.187,-148.77 z M 0,548.328 c 0,302.844 245.496,548.302 548.328,548.332 v 0 c 302.856,-0.03 548.302,-245.488 548.342,-548.332 v 0 C 1096.63,245.488 851.184,0.0195312 548.328,0 V 0 C 245.496,0.0195312 0,245.488 0,548.328 v 0" style="fill:#393536;fill-opacity:1;fill-rule:nonzero;stroke:none" />
                <path d="M 593.262,207.129 V 500.32 l 110.351,80.989 7.051,42.492 -140.352,-23.008 h -44.003 l -140.286,23.008 7.051,-42.492 108.93,-81.282 V 207.129 c -43.164,11.387 -119.414,63.555 -186.672,135.625 0,0 78.867,197.266 27.156,289.226 -15.203,28.508 -15.203,258.274 205.207,257.524 C 768.113,888.738 772.312,673.867 754.188,631.98 704.277,542.258 781.34,342.754 781.34,342.754 714.094,270.664 636.418,218.508 593.262,207.129 Z M 548.34,1036.25 C 278.867,1036.25 60.4023,817.793 60.4023,548.32 60.4023,278.848 278.867,60.3984 548.34,60.3984 c 269.472,0 487.92,218.4496 487.92,487.9216 0,269.473 -218.448,487.93 -487.92,487.93" style="fill:#393536;fill-opacity:1;fill-rule:nonzero;stroke:none" />
            </g>
        </g>
    </g>
</svg>
